<?xml version="1.0" encoding="us-ascii" standalone="no"?><svg xmlns="http://www.w3.org/2000/svg" xmlns:xlink="http://www.w3.org/1999/xlink" contentStyleType="text/css" height="676px" preserveAspectRatio="none" style="width:752px;height:676px;background:#FFFFFF;" version="1.1" viewBox="0 0 752 676" width="752px" zoomAndPan="magnify"><defs/><g><rect fill="#FEECCD" height="583.748" style="stroke:#7A003C;stroke-width:1.0;" width="10" x="85" y="67.7988"/><rect fill="#FEECCD" height="182.6426" style="stroke:#7A003C;stroke-width:1.0;" width="10" x="267" y="150.4199"/><rect fill="#FEECCD" height="231.8633" style="stroke:#7A003C;stroke-width:1.0;" width="10" x="267" y="405.6836"/><rect fill="#FEECCD" height="68.3105" style="stroke:#7A003C;stroke-width:1.0;" width="10" x="272" y="467.3047"/><rect fill="#FEECCD" height="16.1777" style="stroke:#7A003C;stroke-width:1.0;" width="10" x="427.5" y="191.9082"/><rect fill="#FEECCD" height="16.1777" style="stroke:#7A003C;stroke-width:1.0;" width="10" x="518.5" y="247.3965"/><rect fill="#FEECCD" height="16.1777" style="stroke:#7A003C;stroke-width:1.0;" width="10" x="644.5" y="302.8848"/><rect fill="#FEECCD" height="14" style="stroke:#7A003C;stroke-width:1.0;" width="10" x="644.5" y="501.6152"/><rect fill="#FEECCD" height="29.3105" style="stroke:#7A003C;stroke-width:1.0;" width="10" x="644.5" y="578.9258"/><rect fill="none" height="129.9316" rx="5" ry="5" style="stroke:#000000;stroke-width:1.5;" width="536" x="199" y="420.6836"/><line style="stroke:#7A003C;stroke-width:0.5;stroke-dasharray:5.0,5.0;" x1="90" x2="90" y1="36.4883" y2="669.5469"/><line style="stroke:#7A003C;stroke-width:0.5;stroke-dasharray:5.0,5.0;" x1="272" x2="272" y1="149.8535" y2="669.5469"/><line style="stroke:#7A003C;stroke-width:0.5;stroke-dasharray:5.0,5.0;" x1="432" x2="432" y1="191.3418" y2="669.5469"/><line style="stroke:#7A003C;stroke-width:0.5;stroke-dasharray:5.0,5.0;" x1="523" x2="523" y1="246.8301" y2="669.5469"/><line style="stroke:#7A003C;stroke-width:0.5;stroke-dasharray:5.0,5.0;" x1="649" x2="649" y1="302.3184" y2="669.5469"/><rect fill="#FEECCD" height="30.4883" rx="5" ry="5" style="stroke:#7A003C;stroke-width:0.5;" width="62" x="59" y="5"/><text fill="#000000" font-family="sans-serif" font-size="14" lengthAdjust="spacing" textLength="48" x="66" y="25.5352">_: Main</text><rect fill="#FEECCD" height="583.748" style="stroke:#7A003C;stroke-width:1.0;" width="10" x="85" y="67.7988"/><rect fill="#FEECCD" height="182.6426" style="stroke:#7A003C;stroke-width:1.0;" width="10" x="267" y="150.4199"/><rect fill="#FEECCD" height="231.8633" style="stroke:#7A003C;stroke-width:1.0;" width="10" x="267" y="405.6836"/><rect fill="#FEECCD" height="68.3105" style="stroke:#7A003C;stroke-width:1.0;" width="10" x="272" y="467.3047"/><rect fill="#FEECCD" height="16.1777" style="stroke:#7A003C;stroke-width:1.0;" width="10" x="427.5" y="191.9082"/><rect fill="#FEECCD" height="16.1777" style="stroke:#7A003C;stroke-width:1.0;" width="10" x="518.5" y="247.3965"/><rect fill="#FEECCD" height="16.1777" style="stroke:#7A003C;stroke-width:1.0;" width="10" x="644.5" y="302.8848"/><rect fill="#FEECCD" height="14" style="stroke:#7A003C;stroke-width:1.0;" width="10" x="644.5" y="501.6152"/><rect fill="#FEECCD" height="29.3105" style="stroke:#7A003C;stroke-width:1.0;" width="10" x="644.5" y="578.9258"/><polygon fill="#7A003C" points="73,63.7988,83,67.7988,73,71.7988,77,67.7988" style="stroke:#7A003C;stroke-width:1.0;"/><line style="stroke:#7A003C;stroke-width:1.0;" x1="0" x2="79" y1="67.7988" y2="67.7988"/><text fill="#000000" font-family="sans-serif" font-size="13" lengthAdjust="spacing" textLength="66" x="7" y="63.0566">main(args)</text><rect fill="#FEECCD" height="3" rx="5" ry="5" style="stroke:#FEECCD;stroke-width:1.0;" width="745" x="0" y="96.4541"/><line style="stroke:#7A003C;stroke-width:0.5;" x1="0" x2="745" y1="96.4541" y2="96.4541"/><line style="stroke:#7A003C;stroke-width:0.5;" x1="0" x2="745" y1="99.4541" y2="99.4541"/><rect fill="#FEECCD" height="23.3105" rx="5" ry="5" style="stroke:#7A003C;stroke-width:1.0;" width="102" x="321.5" y="85.7988"/><text fill="#000000" font-family="sans-serif" font-size="13" font-weight="bold" lengthAdjust="spacing" textLength="84" x="327.5" y="102.3672">Initialization</text><polygon fill="#7A003C" points="197,136.4199,207,140.4199,197,144.4199,201,140.4199" style="stroke:#7A003C;stroke-width:1.0;"/><line style="stroke:#7A003C;stroke-width:1.0;" x1="95" x2="203" y1="140.4199" y2="140.4199"/><text fill="#000000" font-family="sans-serif" font-size="13" lengthAdjust="spacing" textLength="90" x="102" y="135.6777">this(str1, str2)</text><rect fill="#FEECCD" height="30.4883" rx="5" ry="5" style="stroke:#7A003C;stroke-width:0.5;" width="126" x="209" y="119.1094"/><text fill="#000000" font-family="sans-serif" font-size="14" lengthAdjust="spacing" textLength="112" x="216" y="139.6445">theMatch: Match</text><polygon fill="#7A003C" points="380,177.9082,390,181.9082,380,185.9082,384,181.9082" style="stroke:#7A003C;stroke-width:1.0;"/><line style="stroke:#7A003C;stroke-width:1.0;" x1="277" x2="386" y1="181.9082" y2="181.9082"/><text fill="#000000" font-family="sans-serif" font-size="13" lengthAdjust="spacing" textLength="91" x="284" y="177.166">this("p1", str1)</text><rect fill="#FEECCD" height="30.4883" rx="5" ry="5" style="stroke:#7A003C;stroke-width:0.5;" width="81" x="392" y="160.5977"/><text fill="#000000" font-family="sans-serif" font-size="14" lengthAdjust="spacing" textLength="67" x="399" y="181.1328">p1: Player</text><polygon fill="#7A003C" points="288,204.0859,278,208.0859,288,212.0859,284,208.0859" style="stroke:#7A003C;stroke-width:1.0;"/><line style="stroke:#7A003C;stroke-width:1.0;stroke-dasharray:2.0,2.0;" x1="282" x2="431.5" y1="208.0859" y2="208.0859"/><polygon fill="#7A003C" points="471,233.3965,481,237.3965,471,241.3965,475,237.3965" style="stroke:#7A003C;stroke-width:1.0;"/><line style="stroke:#7A003C;stroke-width:1.0;" x1="277" x2="477" y1="237.3965" y2="237.3965"/><text fill="#000000" font-family="sans-serif" font-size="13" lengthAdjust="spacing" textLength="91" x="284" y="232.6543">this("p2", str2)</text><rect fill="#FEECCD" height="30.4883" rx="5" ry="5" style="stroke:#7A003C;stroke-width:0.5;" width="81" x="483" y="216.0859"/><text fill="#000000" font-family="sans-serif" font-size="14" lengthAdjust="spacing" textLength="67" x="490" y="236.6211">p2: Player</text><polygon fill="#7A003C" points="288,259.5742,278,263.5742,288,267.5742,284,263.5742" style="stroke:#7A003C;stroke-width:1.0;"/><line style="stroke:#7A003C;stroke-width:1.0;stroke-dasharray:2.0,2.0;" x1="282" x2="522.5" y1="263.5742" y2="263.5742"/><polygon fill="#7A003C" points="562,288.8848,572,292.8848,562,296.8848,566,292.8848" style="stroke:#7A003C;stroke-width:1.0;"/><line style="stroke:#7A003C;stroke-width:1.0;" x1="277" x2="568" y1="292.8848" y2="292.8848"/><text fill="#000000" font-family="sans-serif" font-size="13" lengthAdjust="spacing" textLength="72" x="284" y="288.1426">this(p1, p2)</text><rect fill="#FEECCD" height="30.4883" rx="5" ry="5" style="stroke:#7A003C;stroke-width:0.5;" width="151" x="574" y="271.5742"/><text fill="#000000" font-family="sans-serif" font-size="14" lengthAdjust="spacing" textLength="137" x="581" y="292.1094">scorer: ScoreSystem</text><polygon fill="#7A003C" points="288,315.0625,278,319.0625,288,323.0625,284,319.0625" style="stroke:#7A003C;stroke-width:1.0;"/><line style="stroke:#7A003C;stroke-width:1.0;stroke-dasharray:2.0,2.0;" x1="282" x2="648.5" y1="319.0625" y2="319.0625"/><polygon fill="#7A003C" points="106,329.0625,96,333.0625,106,337.0625,102,333.0625" style="stroke:#7A003C;stroke-width:1.0;"/><line style="stroke:#7A003C;stroke-width:1.0;stroke-dasharray:2.0,2.0;" x1="100" x2="271" y1="333.0625" y2="333.0625"/><rect fill="#FEECCD" height="3" rx="5" ry="5" style="stroke:#FEECCD;stroke-width:1.0;" width="745" x="0" y="361.7178"/><line style="stroke:#7A003C;stroke-width:0.5;" x1="0" x2="745" y1="361.7178" y2="361.7178"/><line style="stroke:#7A003C;stroke-width:0.5;" x1="0" x2="745" y1="364.7178" y2="364.7178"/><rect fill="#FEECCD" height="23.3105" rx="5" ry="5" style="stroke:#7A003C;stroke-width:1.0;" width="94" x="325.5" y="351.0625"/><text fill="#000000" font-family="sans-serif" font-size="13" font-weight="bold" lengthAdjust="spacing" textLength="76" x="331.5" y="367.6309">Game Loop</text><polygon fill="#7A003C" points="255,401.6836,265,405.6836,255,409.6836,259,405.6836" style="stroke:#7A003C;stroke-width:1.0;"/><line style="stroke:#7A003C;stroke-width:1.0;" x1="95" x2="261" y1="405.6836" y2="405.6836"/><text fill="#000000" font-family="sans-serif" font-size="13" lengthAdjust="spacing" textLength="34" x="102" y="400.9414">play()</text><path d="M204,420.6836 L273,420.6836 L273,427.9941 L263,437.9941 L199,437.9941 L199,425.6836 A5,5 0 0 1 204,420.6836 " fill="#EEEEEE" style="stroke:#000000;stroke-width:1.5;"/><rect fill="none" height="129.9316" rx="5" ry="5" style="stroke:#000000;stroke-width:1.5;" width="536" x="199" y="420.6836"/><text fill="#000000" font-family="sans-serif" font-size="13" font-weight="bold" lengthAdjust="spacing" textLength="29" x="214" y="434.252">loop</text><text fill="#000000" font-family="sans-serif" font-size="11" font-weight="bold" lengthAdjust="spacing" textLength="98" x="288" y="433.3184">[!scorer.isEnded?]</text><line style="stroke:#7A003C;stroke-width:1.0;" x1="277" x2="324" y1="454.3047" y2="454.3047"/><line style="stroke:#7A003C;stroke-width:1.0;" x1="324" x2="324" y1="454.3047" y2="467.3047"/><line style="stroke:#7A003C;stroke-width:1.0;" x1="283" x2="324" y1="467.3047" y2="467.3047"/><polygon fill="#7A003C" points="293,463.3047,283,467.3047,293,471.3047,289,467.3047" style="stroke:#7A003C;stroke-width:1.0;"/><text fill="#000000" font-family="sans-serif" font-size="13" lengthAdjust="spacing" textLength="69" x="289" y="449.5625">playGame()</text><polygon fill="#7A003C" points="632.5,497.6152,642.5,501.6152,632.5,505.6152,636.5,501.6152" style="stroke:#7A003C;stroke-width:1.0;"/><line style="stroke:#7A003C;stroke-width:1.0;" x1="282" x2="638.5" y1="501.6152" y2="501.6152"/><text fill="#000000" font-family="sans-serif" font-size="13" lengthAdjust="spacing" textLength="92" x="289" y="496.873">score(p1 || p2)</text><polygon fill="#7A003C" points="293,511.6152,283,515.6152,293,519.6152,289,515.6152" style="stroke:#7A003C;stroke-width:1.0;"/><line style="stroke:#7A003C;stroke-width:1.0;stroke-dasharray:2.0,2.0;" x1="287" x2="648.5" y1="515.6152" y2="515.6152"/><line style="stroke:#7A003C;stroke-width:1.0;stroke-dasharray:2.0,2.0;" x1="282" x2="324" y1="534.6152" y2="534.6152"/><line style="stroke:#7A003C;stroke-width:1.0;stroke-dasharray:2.0,2.0;" x1="324" x2="324" y1="534.6152" y2="547.6152"/><line style="stroke:#7A003C;stroke-width:1.0;stroke-dasharray:2.0,2.0;" x1="277" x2="324" y1="547.6152" y2="547.6152"/><polygon fill="#7A003C" points="287,543.6152,277,547.6152,287,551.6152,283,547.6152" style="stroke:#7A003C;stroke-width:1.0;"/><polygon fill="#7A003C" points="632.5,574.9258,642.5,578.9258,632.5,582.9258,636.5,578.9258" style="stroke:#7A003C;stroke-width:1.0;"/><line style="stroke:#7A003C;stroke-width:1.0;" x1="277" x2="638.5" y1="578.9258" y2="578.9258"/><text fill="#000000" font-family="sans-serif" font-size="13" lengthAdjust="spacing" textLength="50" x="284" y="574.1836">winner()</text><polygon fill="#7A003C" points="288,604.2363,278,608.2363,288,612.2363,284,608.2363" style="stroke:#7A003C;stroke-width:1.0;"/><line style="stroke:#7A003C;stroke-width:1.0;stroke-dasharray:2.0,2.0;" x1="282" x2="648.5" y1="608.2363" y2="608.2363"/><text fill="#000000" font-family="sans-serif" font-size="13" lengthAdjust="spacing" textLength="10" x="294" y="603.4941">w</text><polygon fill="#7A003C" points="106,633.5469,96,637.5469,106,641.5469,102,637.5469" style="stroke:#7A003C;stroke-width:1.0;"/><line style="stroke:#7A003C;stroke-width:1.0;stroke-dasharray:2.0,2.0;" x1="100" x2="271" y1="637.5469" y2="637.5469"/><text fill="#000000" font-family="sans-serif" font-size="13" lengthAdjust="spacing" textLength="10" x="112" y="632.8047">w</text><polygon fill="#7A003C" points="11,647.5469,1,651.5469,11,655.5469,7,651.5469" style="stroke:#7A003C;stroke-width:1.0;"/><line style="stroke:#7A003C;stroke-width:1.0;stroke-dasharray:2.0,2.0;" x1="5" x2="89" y1="651.5469" y2="651.5469"/><!--SRC=[TL71QiCm3BtxAxIS4jWwacEWsscCmGg57dSO8X6h8N6ChQnqzEDdEsaRfuqEjcozz_maFqXLDNrDi7hMVTkiB1yR4W9xxh1Y-OjCq2aXD1gMbTIe69Bl4ZOeLG9eGn9NUKyRv6hlGMuRKIwBOJelOTlWaKn0RFDPkOZBHLosLMV8bB3p- -vecTg02sSZnDVJIx1MGklM5CsFpGIuMA_XGqcMsCW_PDafTnCAbI7VxE0Knl0I4AH2GxoNDhLiyaTmQv5TS2FPDG6J22nFt-OZrtMT16wUHKX3t1jr8rSio1KNkIAPMrcM6sTpLt8tpZF8QjUVNfQSf6wQxzWIV7QTFWzoDZFjFZ6zQZKU-J1ytqhQDrLJ_HgzT3KrKV2lfDa2xcm-g3htS3hT-9_FvDuTgLeiYX-aKcGc7WOo74Hq699_]--></g></svg>