<?xml version="1.0" encoding="us-ascii" standalone="no"?><svg xmlns="http://www.w3.org/2000/svg" xmlns:xlink="http://www.w3.org/1999/xlink" contentStyleType="text/css" height="577px" preserveAspectRatio="none" style="width:832px;height:577px;background:#FFFFFF;" version="1.1" viewBox="0 0 832 577" width="832px" zoomAndPan="magnify"><defs/><g><!--cluster scorer--><g id="cluster_scorer"><path d="M348.5,312.53 L388.5,312.53 A7.5,7.5 0 0 1 393.5,317.53 L400.5,335.0183 L820.5,335.0183 A5,5 0 0 1 825.5,340.0183 L825.5,565.97 A5,5 0 0 1 820.5,570.97 L348.5,570.97 A5,5 0 0 1 343.5,565.97 L343.5,317.53 A5,5 0 0 1 348.5,312.53 " fill="none" style="stroke:#000000;stroke-width:1.5;"/><line style="stroke:#000000;stroke-width:1.5;" x1="343.5" x2="400.5" y1="335.0183" y2="335.0183"/><text fill="#000000" font-family="sans-serif" font-size="14" font-weight="bold" lengthAdjust="spacing" textLength="44" x="347.5" y="328.0652">scorer</text></g><!--class ScoreSystem--><g id="elem_ScoreSystem"><rect codeLine="40" fill="#FEECCD" height="105.9531" id="ScoreSystem" rx="5" ry="5" style="stroke:#7A003C;stroke-width:1.0;" width="213" x="478" y="347.53"/><ellipse cx="537.25" cy="363.53" fill="#B4A7E5" rx="11" ry="11" style="stroke:#181818;stroke-width:1.0;"/><path d="M533.6777,359.7951 L533.6777,357.6369 L541.0571,357.6369 L541.0571,359.7951 L538.5918,359.7951 L538.5918,367.8718 L541.0571,367.8718 L541.0571,370.03 L533.6777,370.03 L533.6777,367.8718 L536.1431,367.8718 L536.1431,359.7951 Z " fill="#000000"/><text fill="#000000" font-family="sans-serif" font-size="14" font-style="italic" lengthAdjust="spacing" textLength="86" x="557.75" y="368.821">ScoreSystem</text><line style="stroke:#7A003C;stroke-width:1.0;" x1="479" x2="690" y1="379.53" y2="379.53"/><ellipse cx="489" cy="393.2741" fill="#84BE84" rx="3" ry="3" style="stroke:#038048;stroke-width:1.0;"/><text fill="#000000" font-family="sans-serif" font-size="14" lengthAdjust="spacing" textLength="128" x="498" y="397.0652">isEnded(): boolean</text><ellipse cx="489" cy="409.7624" fill="#84BE84" rx="3" ry="3" style="stroke:#038048;stroke-width:1.0;"/><text fill="#000000" font-family="sans-serif" font-size="14" lengthAdjust="spacing" textLength="187" x="498" y="413.5534">winner(): Optional&lt;Player&gt;</text><ellipse cx="489" cy="426.2507" fill="#84BE84" rx="3" ry="3" style="stroke:#038048;stroke-width:1.0;"/><text fill="#000000" font-family="sans-serif" font-size="14" lengthAdjust="spacing" textLength="105" x="498" y="430.0417">score(p: Player)</text><ellipse cx="489" cy="442.739" fill="#84BE84" rx="3" ry="3" style="stroke:#038048;stroke-width:1.0;"/><text fill="#000000" font-family="sans-serif" font-size="14" lengthAdjust="spacing" textLength="100" x="498" y="446.53">status(): String</text></g><!--class FiniteStateMachine--><g id="elem_FiniteStateMachine"><rect codeLine="47" fill="#FEECCD" height="56.4883" id="FiniteStateMachine" rx="5" ry="5" style="stroke:#7A003C;stroke-width:1.0;" width="203" x="359" y="498.48"/><ellipse cx="392.9" cy="514.48" fill="#ADD1B2" rx="11" ry="11" style="stroke:#181818;stroke-width:1.0;"/><path d="M395.3731,520.6231 Q394.7921,520.9219 394.1529,521.0713 Q393.5138,521.2207 392.8082,521.2207 Q390.3014,521.2207 388.9815,519.5689 Q387.6617,517.917 387.6617,514.7959 Q387.6617,511.6665 388.9815,510.0147 Q390.3014,508.3628 392.8082,508.3628 Q393.5138,508.3628 394.1612,508.5122 Q394.8087,508.6616 395.3731,508.9605 L395.3731,511.6831 Q394.7423,511.1021 394.1488,510.8323 Q393.5553,510.5625 392.9244,510.5625 Q391.5797,510.5625 390.8949,511.6292 Q390.2101,512.6958 390.2101,514.7959 Q390.2101,516.8877 390.8949,517.9544 Q391.5797,519.021 392.9244,519.021 Q393.5553,519.021 394.1488,518.7512 Q394.7423,518.4815 395.3731,517.9004 Z " fill="#000000"/><text fill="#000000" font-family="sans-serif" font-size="14" lengthAdjust="spacing" textLength="129" x="411.1" y="519.771">FiniteStateMachine</text><line style="stroke:#7A003C;stroke-width:1.0;" x1="360" x2="561" y1="530.48" y2="530.48"/><ellipse cx="370" cy="544.2241" fill="#84BE84" rx="3" ry="3" style="stroke:#038048;stroke-width:1.0;"/><text fill="#000000" font-family="sans-serif" font-size="14" lengthAdjust="spacing" textLength="177" x="379" y="548.0152">this(p1: Player, p2: Player)</text></g><!--class RuleBasedSystem--><g id="elem_RuleBasedSystem"><rect codeLine="51" fill="#FEECCD" height="56.4883" id="RuleBasedSystem" rx="5" ry="5" style="stroke:#7A003C;stroke-width:1.0;" width="203" x="607" y="498.48"/><ellipse cx="645.85" cy="514.48" fill="#ADD1B2" rx="11" ry="11" style="stroke:#181818;stroke-width:1.0;"/><path d="M648.3231,520.6231 Q647.7421,520.9219 647.1029,521.0713 Q646.4638,521.2207 645.7582,521.2207 Q643.2514,521.2207 641.9315,519.5689 Q640.6117,517.917 640.6117,514.7959 Q640.6117,511.6665 641.9315,510.0147 Q643.2514,508.3628 645.7582,508.3628 Q646.4638,508.3628 647.1112,508.5122 Q647.7587,508.6616 648.3231,508.9605 L648.3231,511.6831 Q647.6923,511.1021 647.0988,510.8323 Q646.5053,510.5625 645.8744,510.5625 Q644.5297,510.5625 643.8449,511.6292 Q643.1601,512.6958 643.1601,514.7959 Q643.1601,516.8877 643.8449,517.9544 Q644.5297,519.021 645.8744,519.021 Q646.5053,519.021 647.0988,518.7512 Q647.6923,518.4815 648.3231,517.9004 Z " fill="#000000"/><text fill="#000000" font-family="sans-serif" font-size="14" lengthAdjust="spacing" textLength="118" x="665.15" y="519.771">RuleBasedSystem</text><line style="stroke:#7A003C;stroke-width:1.0;" x1="608" x2="809" y1="530.48" y2="530.48"/><ellipse cx="618" cy="544.2241" fill="#84BE84" rx="3" ry="3" style="stroke:#038048;stroke-width:1.0;"/><text fill="#000000" font-family="sans-serif" font-size="14" lengthAdjust="spacing" textLength="177" x="627" y="548.0152">this(p1: Player, p2: Player)</text></g><!--class Main--><g id="elem_Main"><rect codeLine="2" fill="#FEECCD" height="72.9766" id="Main" rx="5" ry="5" style="stroke:#7A003C;stroke-width:1.0;" width="295" x="7" y="186.82"/><ellipse cx="133.75" cy="202.82" fill="#ADD1B2" rx="11" ry="11" style="stroke:#181818;stroke-width:1.0;"/><path d="M136.2231,208.9631 Q135.6421,209.2619 135.0029,209.4113 Q134.3638,209.5607 133.6582,209.5607 Q131.1514,209.5607 129.8315,207.9089 Q128.5117,206.257 128.5117,203.1359 Q128.5117,200.0065 129.8315,198.3547 Q131.1514,196.7028 133.6582,196.7028 Q134.3638,196.7028 135.0112,196.8522 Q135.6587,197.0016 136.2231,197.3005 L136.2231,200.0231 Q135.5923,199.4421 134.9988,199.1723 Q134.4053,198.9025 133.7744,198.9025 Q132.4297,198.9025 131.7449,199.9692 Q131.0601,201.0358 131.0601,203.1359 Q131.0601,205.2277 131.7449,206.2944 Q132.4297,207.361 133.7744,207.361 Q134.4053,207.361 134.9988,207.0912 Q135.5923,206.8215 136.2231,206.2404 Z " fill="#000000"/><text fill="#000000" font-family="sans-serif" font-size="14" lengthAdjust="spacing" textLength="33" x="154.25" y="208.111">Main</text><line style="stroke:#7A003C;stroke-width:1.0;" x1="8" x2="301" y1="218.82" y2="218.82"/><ellipse cx="18" cy="232.5641" fill="#84BE84" rx="3" ry="3" style="stroke:#038048;stroke-width:1.0;"/><text fill="#000000" font-family="sans-serif" font-size="14" lengthAdjust="spacing" text-decoration="underline" textLength="133" x="27" y="236.3552">main(args: String[])</text><ellipse cx="18" cy="249.0524" fill="#84BE84" rx="3" ry="3" style="stroke:#038048;stroke-width:1.0;"/><text fill="#000000" font-family="sans-serif" font-size="14" lengthAdjust="spacing" text-decoration="underline" textLength="269" x="27" y="252.8434">configure(args: String[]): Configuration</text></g><!--class Configuration--><g id="elem_Configuration"><rect codeLine="7" fill="#FEECCD" height="98.0859" id="Configuration" rx="5" ry="5" style="stroke:#7A003C;stroke-width:1.0;" width="160" x="74.5" y="7"/><ellipse cx="103.9" cy="27.3105" fill="#F1F1F1" rx="11" ry="11" style="stroke:#181818;stroke-width:1.0;"/><path d="M103.6334,28.3735 Q101.7823,27.668 101.1266,26.8918 Q100.4708,26.1157 100.4708,24.8042 Q100.4708,23.1191 101.5499,22.1563 Q102.629,21.1934 104.5133,21.1934 Q105.3683,21.1934 106.2232,21.3884 Q107.0782,21.5835 107.9166,21.9653 L107.9166,24.356 Q107.128,23.7998 106.3146,23.5093 Q105.5011,23.2188 104.7042,23.2188 Q103.816,23.2188 103.3429,23.5757 Q102.8697,23.9326 102.8697,24.5967 Q102.8697,25.1113 103.2142,25.4475 Q103.5587,25.7837 104.6544,26.1904 L105.7086,26.5889 Q107.2027,27.1367 107.9083,28.0415 Q108.6139,28.9463 108.6139,30.3242 Q108.6139,32.2002 107.5057,33.1257 Q106.3976,34.0513 104.1563,34.0513 Q103.235,34.0513 102.3094,33.8313 Q101.3839,33.6113 100.5206,33.1797 L100.5206,30.6479 Q101.5001,31.3452 102.4173,31.6855 Q103.3346,32.0259 104.2311,32.0259 Q105.1358,32.0259 105.6339,31.615 Q106.1319,31.2041 106.1319,30.4653 Q106.1319,29.9092 105.7999,29.49 Q105.4679,29.0708 104.837,28.8301 Z " fill="#000000"/><text fill="#000000" font-family="sans-serif" font-size="12" font-style="italic" lengthAdjust="spacing" textLength="55" x="141.6" y="23.6016">&#171;internal&#187;</text><text fill="#000000" font-family="sans-serif" font-size="14" lengthAdjust="spacing" textLength="96" x="121.1" y="39.668">Configuration</text><line style="stroke:#7A003C;stroke-width:1.0;" x1="75.5" x2="233.5" y1="47.6211" y2="47.6211"/><ellipse cx="85.5" cy="61.3652" fill="none" rx="3" ry="3" style="stroke:#038048;stroke-width:1.0;"/><text fill="#000000" font-family="sans-serif" font-size="14" lengthAdjust="spacing" textLength="134" x="94.5" y="65.1563">p1Strength: Integer</text><ellipse cx="85.5" cy="77.8535" fill="none" rx="3" ry="3" style="stroke:#038048;stroke-width:1.0;"/><text fill="#000000" font-family="sans-serif" font-size="14" lengthAdjust="spacing" textLength="129" x="94.5" y="81.6445">p2Strengh: Integer</text><ellipse cx="85.5" cy="94.3418" fill="none" rx="3" ry="3" style="stroke:#038048;stroke-width:1.0;"/><text fill="#000000" font-family="sans-serif" font-size="14" lengthAdjust="spacing" textLength="134" x="94.5" y="98.1328">scoreSystem: String</text></g><!--class Player--><g id="elem_Player"><rect codeLine="15" fill="#FEECCD" height="97.4648" id="Player" rx="5" ry="5" style="stroke:#7A003C;stroke-width:1.0;" width="206" x="481.5" y="7.31"/><ellipse cx="559.75" cy="23.31" fill="#ADD1B2" rx="11" ry="11" style="stroke:#181818;stroke-width:1.0;"/><path d="M562.2231,29.4531 Q561.6421,29.7519 561.0029,29.9013 Q560.3638,30.0507 559.6582,30.0507 Q557.1514,30.0507 555.8315,28.3989 Q554.5117,26.747 554.5117,23.6259 Q554.5117,20.4965 555.8315,18.8447 Q557.1514,17.1928 559.6582,17.1928 Q560.3638,17.1928 561.0112,17.3422 Q561.6587,17.4916 562.2231,17.7905 L562.2231,20.5131 Q561.5923,19.9321 560.9988,19.6623 Q560.4053,19.3925 559.7744,19.3925 Q558.4297,19.3925 557.7449,20.4592 Q557.0601,21.5258 557.0601,23.6259 Q557.0601,25.7177 557.7449,26.7844 Q558.4297,27.851 559.7744,27.851 Q560.4053,27.851 560.9988,27.5812 Q561.5923,27.3115 562.2231,26.7304 Z " fill="#000000"/><text fill="#000000" font-family="sans-serif" font-size="14" lengthAdjust="spacing" textLength="41" x="580.25" y="28.601">Player</text><line style="stroke:#7A003C;stroke-width:1.0;" x1="482.5" x2="686.5" y1="39.31" y2="39.31"/><rect fill="none" height="6" style="stroke:#C82930;stroke-width:1.0;" width="6" x="489.5" y="50.0541"/><text fill="#000000" font-family="sans-serif" font-size="14" lengthAdjust="spacing" textLength="87" x="501.5" y="56.8452">name: String</text><rect fill="none" height="6" style="stroke:#C82930;stroke-width:1.0;" width="6" x="489.5" y="66.5424"/><text fill="#000000" font-family="sans-serif" font-size="14" lengthAdjust="spacing" textLength="115" x="501.5" y="73.3334">strength: Integer</text><line style="stroke:#7A003C;stroke-width:1.0;" x1="482.5" x2="686.5" y1="80.2866" y2="80.2866"/><ellipse cx="492.5" cy="94.0307" fill="#84BE84" rx="3" ry="3" style="stroke:#038048;stroke-width:1.0;"/><text fill="#000000" font-family="sans-serif" font-size="14" lengthAdjust="spacing" textLength="180" x="501.5" y="97.8217">equals(o: Object): boolean</text></g><!--class Match--><g id="elem_Match"><rect codeLine="21" fill="#FEECCD" height="146.4414" id="Match" rx="5" ry="5" style="stroke:#7A003C;stroke-width:1.0;" width="475" x="347" y="150.09"/><ellipse cx="559.75" cy="166.09" fill="#ADD1B2" rx="11" ry="11" style="stroke:#181818;stroke-width:1.0;"/><path d="M562.2231,172.2331 Q561.6421,172.5319 561.0029,172.6813 Q560.3638,172.8307 559.6582,172.8307 Q557.1514,172.8307 555.8315,171.1789 Q554.5117,169.527 554.5117,166.4059 Q554.5117,163.2765 555.8315,161.6247 Q557.1514,159.9728 559.6582,159.9728 Q560.3638,159.9728 561.0112,160.1222 Q561.6587,160.2716 562.2231,160.5705 L562.2231,163.2931 Q561.5923,162.7121 560.9988,162.4423 Q560.4053,162.1725 559.7744,162.1725 Q558.4297,162.1725 557.7449,163.2392 Q557.0601,164.3058 557.0601,166.4059 Q557.0601,168.4977 557.7449,169.5644 Q558.4297,170.631 559.7744,170.631 Q560.4053,170.631 560.9988,170.3612 Q561.5923,170.0915 562.2231,169.5104 Z " fill="#000000"/><text fill="#000000" font-family="sans-serif" font-size="14" lengthAdjust="spacing" textLength="41" x="580.25" y="171.381">Match</text><line style="stroke:#7A003C;stroke-width:1.0;" x1="348" x2="821" y1="182.09" y2="182.09"/><ellipse cx="358" cy="195.8341" fill="none" rx="3" ry="3" style="stroke:#038048;stroke-width:1.0;"/><text fill="#000000" font-family="sans-serif" font-size="14" lengthAdjust="spacing" text-decoration="underline" textLength="111" x="367" y="199.6252">P1_NAME = "p1"</text><ellipse cx="358" cy="212.3224" fill="none" rx="3" ry="3" style="stroke:#038048;stroke-width:1.0;"/><text fill="#000000" font-family="sans-serif" font-size="14" lengthAdjust="spacing" text-decoration="underline" textLength="111" x="367" y="216.1134">P2_NAME = "p2"</text><line style="stroke:#7A003C;stroke-width:1.0;" x1="348" x2="821" y1="223.0666" y2="223.0666"/><ellipse cx="358" cy="236.8107" fill="#84BE84" rx="3" ry="3" style="stroke:#038048;stroke-width:1.0;"/><text fill="#000000" font-family="sans-serif" font-size="14" lengthAdjust="spacing" textLength="449" x="367" y="240.6017">this(strengthP1: Integer, strengthP2: Integer, scoreSystem: String)</text><line style="stroke:#7A003C;stroke-width:1.0;" x1="348" x2="821" y1="247.5548" y2="247.5548"/><ellipse cx="358" cy="261.299" fill="#84BE84" rx="3" ry="3" style="stroke:#038048;stroke-width:1.0;"/><text fill="#000000" font-family="sans-serif" font-size="14" lengthAdjust="spacing" textLength="87" x="367" y="265.09">play(): Player</text><line style="stroke:#7A003C;stroke-width:1.0;" x1="348" x2="821" y1="272.0431" y2="272.0431"/><rect fill="#F24D5C" height="6" style="stroke:#C82930;stroke-width:1.0;" width="6" x="355" y="282.7873"/><text fill="#000000" font-family="sans-serif" font-size="14" lengthAdjust="spacing" textLength="77" x="367" y="289.5783">playGame()</text></g><!--link Configuration to Main--><g id="link_Configuration_Main"><path codeLine="13" d="M154.5,111.29 C154.5,137.2 154.5,146.61 154.5,170.36 " fill="none" id="Configuration-Main" style="stroke:#7A003C;stroke-width:1.0;"/><polygon fill="#7A003C" points="154.5,105.29,150.5,114.29,154.5,110.29,158.5,114.29,154.5,105.29" style="stroke:#7A003C;stroke-width:1.0;"/><ellipse cx="154.5" cy="178.36" fill="#FFFFFF" rx="8" ry="8" style="stroke:#7A003C;stroke-width:1.0;"/><line style="stroke:#7A003C;stroke-width:1.0;" x1="154.5" x2="154.5" y1="170.36" y2="186.36"/><line style="stroke:#7A003C;stroke-width:1.0;" x1="162.5" x2="146.5" y1="178.36" y2="178.36"/></g><!--link Main to Match--><g id="link_Main_Match"><path codeLine="32" d="M302.28,223.31 C310.03,223.31 321.06,223.31 340.64,223.31 " fill="none" id="Main-to-Match" style="stroke:#7A003C;stroke-width:1.0;stroke-dasharray:7.0,7.0;"/><polygon fill="#7A003C" points="346.64,223.31,337.64,219.31,341.64,223.31,337.64,227.31,346.64,223.31" style="stroke:#7A003C;stroke-width:1.0;"/></g><!--link Player to Match--><g id="link_Player_Match"><path codeLine="33" d="M568.8764,110.8288 C567.6964,124.8388 567.5194,122.5128 567.8494,137.7028 " fill="none" id="Player-Match" style="stroke:#7A003C;stroke-width:1.0;"/><polygon fill="#7A003C" points="569.38,104.85,564.6388,113.4825,568.9604,109.8324,572.6105,114.154,569.38,104.85" style="stroke:#7A003C;stroke-width:1.0;"/><polygon fill="#7A003C" points="568.11,149.7,571.9787,143.6145,567.8494,137.7028,563.9806,143.7883,568.11,149.7" style="stroke:#7A003C;stroke-width:1.0;"/><text fill="#000000" font-family="sans-serif" font-size="13" lengthAdjust="spacing" textLength="46" x="518.0194" y="125.3584">player1</text></g><!--link Player to Match--><g id="link_Player_Match"><path codeLine="34" d="M600.8347,110.827 C602.0647,124.837 602.2485,122.513 601.9085,137.703 " fill="none" id="Player-Match-1" style="stroke:#7A003C;stroke-width:1.0;"/><polygon fill="#7A003C" points="600.31,104.85,597.1124,114.1653,600.7473,109.8308,605.0818,113.4657,600.31,104.85" style="stroke:#7A003C;stroke-width:1.0;"/><polygon fill="#7A003C" points="601.64,149.7,605.7733,143.791,601.9085,137.703,597.7753,143.612,601.64,149.7" style="stroke:#7A003C;stroke-width:1.0;"/><text fill="#000000" font-family="sans-serif" font-size="13" lengthAdjust="spacing" textLength="46" x="605.7677" y="125.3584">player2</text></g><!--link Match to ScoreSystem--><g id="link_Match_ScoreSystem"><path codeLine="36" d="M584.5,308.83 C584.5,325.68 584.5,325.3 584.5,341.09 " fill="none" id="Match-ScoreSystem" style="stroke:#7A003C;stroke-width:1.0;"/><polygon fill="#7A003C" points="584.5,296.83,580.5,302.83,584.5,308.83,588.5,302.83,584.5,296.83" style="stroke:#7A003C;stroke-width:1.0;"/><polygon fill="#7A003C" points="584.5,347.09,588.5,338.09,584.5,342.09,580.5,338.09,584.5,347.09" style="stroke:#7A003C;stroke-width:1.0;"/><text fill="#000000" font-family="sans-serif" font-size="13" lengthAdjust="spacing" textLength="39" x="543.0016" y="336.8733">scorer</text></g><!--reverse link ScoreSystem to FiniteStateMachine--><g id="link_ScoreSystem_FiniteStateMachine"><path d="M519.5546,466.5704 C504.3346,481.8204 501.02,485.13 487.98,498.2 " fill="none" id="ScoreSystem-backto-FiniteStateMachine" style="stroke:#7A003C;stroke-width:1.0;stroke-dasharray:7.0,7.0;"/><polygon fill="none" points="532.27,453.83,515.3078,462.332,523.8014,470.8089,532.27,453.83" style="stroke:#7A003C;stroke-width:1.0;"/></g><!--reverse link ScoreSystem to RuleBasedSystem--><g id="link_ScoreSystem_RuleBasedSystem"><path d="M649.4454,466.5704 C664.6654,481.8204 667.98,485.13 681.02,498.2 " fill="none" id="ScoreSystem-backto-RuleBasedSystem" style="stroke:#7A003C;stroke-width:1.0;stroke-dasharray:7.0,7.0;"/><polygon fill="none" points="636.73,453.83,645.1986,470.8089,653.6922,462.332,636.73,453.83" style="stroke:#7A003C;stroke-width:1.0;"/></g><!--SRC=[hP8nJyCm48Lt_ueZKmgaA1ch4WaG88P2HKU4a76FrE0undQ4AjJ_ZcCdRTB2HfP8zvtztZtV4PTCr4k4yPcgIp4sTYsGC46DWHdb4hu9kEy4lesbbhCDbAuQKrsO2Ioivh9uUXxjzx1All6YrhZVE86h5hd6If8D8SRgcjbX7QPJBYrgIKMURoserDs3ih2h2TmvNA3kI1R80J2iqhXO6ujbvwBHt1DBaXC_B6a7dmkwHjtg9Y1fYTlJeMJ-C8AVDHKchYRmyFgEpBg1NwjA8FMZTh5QjZhCTPw-t5_Chk4S8fL61pJRqIpG96cRx8gRk7CqJxUUJhSsvrc_U9Z9Q7YXSlF7pdh8eSyIpsvT8F6ecSYlo3WFCv4sjqZvVneroHx_oh818o6IuoJ98VBsT1Hiwl5YvvOGHTa7BR1bBaDlog_A6sK8lUOsu30GDzToYSkuznmx-CMbHDsm1zNi0nNJO3RlDNd5M7MPZFh8FL5jclEz5Ta4Q-75RxZa5XUk3sUKhRX4uAKIMAAqva_J_bbLsacUkYqVoWyq7ck1bzJWihtfdmGsv0S0]--></g></svg>